<?xml version="1.0" encoding="UTF-8"?>
<svg id="Laag_1" data-name="Laag 1" xmlns="http://www.w3.org/2000/svg" viewBox="0 0 20.7 29.25">
  <defs>
    <style>
      .cls-1 {
        fill: #fff;
      }

      .cls-1, .cls-2 {
        stroke-width: 0px;
      }

      .cls-2 {
        fill: #ea561d;
      }
    </style>
  </defs>
  <path class="cls-1" d="M8.39,22.18V6.47h4.28v15.7h-4.28ZM10.53,4.45c-.64,0-1.19-.22-1.63-.66-.44-.44-.66-.96-.66-1.57s.22-1.14.66-1.57c.44-.44.98-.66,1.63-.66s1.19.22,1.63.66c.44.43.66.95.66,1.57s-.22,1.13-.66,1.57c-.44.44-.98.66-1.63.66Z"/>
  <path class="cls-2" d="M.52,29.18v-2.58h-.52v-.64h.52v-.3c0-.21.04-.39.11-.54.08-.14.2-.25.36-.32.16-.07.38-.11.64-.11.09,0,.17,0,.24,0,.07,0,.14.01.2.02v.57s-.06,0-.11-.01c-.04,0-.09,0-.15,0-.17,0-.28.04-.35.11-.07.07-.1.18-.1.32v.24h.68v.64h-.67v2.58h-.86ZM4.04,29.25c-.33,0-.61-.07-.85-.2-.24-.13-.42-.33-.55-.58-.13-.25-.19-.55-.19-.9h0c0-.35.06-.65.19-.9s.31-.44.55-.58c.24-.14.52-.21.85-.21s.61.07.85.2c.24.13.42.33.55.58.13.25.19.55.19.9h0c0,.36-.06.66-.19.91-.13.25-.31.44-.55.58-.24.13-.52.2-.85.2ZM4.04,28.57c.15,0,.28-.04.39-.12.11-.08.19-.2.24-.35.06-.15.08-.33.08-.54h0c0-.22-.03-.4-.08-.54-.06-.15-.14-.27-.25-.35-.11-.08-.23-.12-.38-.12s-.28.04-.39.12c-.11.08-.19.2-.24.35-.06.15-.08.33-.08.54h0c0,.22.03.4.08.55.06.15.14.27.24.35.11.08.24.12.39.12ZM6.33,29.18v-3.23h.86v.5h.05c.05-.18.15-.31.29-.41.14-.1.32-.15.52-.15.06,0,.12,0,.17.01.06,0,.11.02.15.03v.75c-.06-.02-.13-.03-.2-.04-.06,0-.13-.01-.2-.01-.16,0-.3.03-.42.09-.12.06-.21.14-.28.25-.06.11-.1.24-.1.39v1.8h-.86ZM12.57,29.18v-.66h1.23c.26,0,.45-.05.58-.16.13-.11.2-.26.2-.46h0c0-.14-.03-.25-.09-.34-.06-.09-.15-.16-.27-.2-.12-.05-.27-.07-.44-.07h-1.21v-.58h1.11c.24,0,.42-.05.55-.14.13-.1.19-.23.19-.4h0c0-.18-.06-.31-.18-.41-.12-.1-.28-.15-.49-.15h-1.18v-.66h1.41c.28,0,.51.04.7.13.2.08.34.2.45.36.11.16.16.34.16.56h0c0,.15-.03.29-.1.42-.07.13-.16.24-.27.32-.12.09-.25.14-.39.16v.05c.19.01.35.07.5.16.15.09.26.21.34.36.08.15.13.31.13.49h0c0,.25-.06.47-.18.65-.12.18-.29.32-.5.42-.22.1-.48.15-.78.15h-1.46ZM12.12,29.18v-4.23h.88v4.23h-.88ZM16.28,29.18v-4.23h1.01l1.17,3.09h.05l1.17-3.09h1.01v4.23h-.79v-2.88h-.44l.84-1.23-1.55,4.11h-.55l-1.55-4.11.84,1.23h-.44v2.88h-.79Z"/>
</svg>