<?xml version="1.0" encoding="UTF-8"?>
<svg id="Laag_1" data-name="Laag 1" xmlns="http://www.w3.org/2000/svg" viewBox="0 0 196.31 73.84">
  <defs>
    <style>
      .cls-1 {
        fill: #fff;
      }

      .cls-1, .cls-2 {
        stroke-width: 0px;
      }

      .cls-2 {
        fill: #ea561d;
      }
    </style>
  </defs>
  <path class="cls-1" d="M.36,54.71V15.97h10.55v38.73H.36ZM5.64,10.98c-1.59,0-2.93-.54-4.01-1.63-1.08-1.08-1.63-2.37-1.63-3.87S.54,2.69,1.63,1.63C2.71.54,4.05,0,5.64,0s2.93.54,4.01,1.63c1.08,1.06,1.63,2.35,1.63,3.87s-.54,2.78-1.63,3.87c-1.08,1.08-2.42,1.63-4.01,1.63ZM17.99,54.71V15.97h10.55v6.36h.22c1.01-2.22,2.51-3.96,4.48-5.24,1.98-1.28,4.42-1.91,7.33-1.91,4.26,0,7.55,1.29,9.86,3.87,2.34,2.55,3.5,6.11,3.5,10.66v25h-10.55v-22.84c0-2.53-.6-4.48-1.81-5.85-1.18-1.4-2.95-2.1-5.31-2.1-1.57,0-2.93.36-4.08,1.08-1.16.7-2.06,1.69-2.71,2.96-.63,1.28-.94,2.77-.94,4.48v22.26h-10.55ZM76.57,55.5c-3.57,0-6.6-.52-9.11-1.55s-4.47-2.47-5.89-4.3c-1.4-1.85-2.24-4-2.53-6.43l-.04-.33h10.3l.07.33c.34,1.52,1.1,2.7,2.28,3.54s2.82,1.26,4.91,1.26c1.35,0,2.49-.16,3.43-.47.94-.34,1.66-.81,2.17-1.41.53-.6.79-1.32.79-2.17v-.04c0-1.04-.37-1.87-1.12-2.49-.75-.63-2.07-1.16-3.97-1.59l-6.58-1.37c-2.51-.53-4.6-1.29-6.29-2.28-1.66-1.01-2.91-2.25-3.76-3.72-.84-1.49-1.26-3.2-1.26-5.13v-.04c0-2.48.66-4.62,1.99-6.43,1.32-1.81,3.2-3.2,5.64-4.19,2.46-1.01,5.32-1.52,8.6-1.52s6.32.55,8.71,1.66c2.41,1.08,4.25,2.55,5.53,4.41,1.3,1.85,1.99,3.91,2.06,6.18v.36h-9.72l-.04-.29c-.17-1.4-.82-2.55-1.95-3.47-1.11-.94-2.64-1.41-4.59-1.41-1.2,0-2.25.17-3.14.51-.89.34-1.58.82-2.06,1.45-.48.6-.72,1.32-.72,2.17v.04c0,.65.16,1.24.47,1.77.34.51.89.95,1.66,1.34.77.39,1.81.72,3.11,1.01l6.58,1.41c4.07.84,6.99,2.11,8.74,3.79,1.78,1.69,2.67,3.95,2.67,6.79v.04c0,2.53-.72,4.73-2.17,6.61-1.45,1.88-3.44,3.35-6,4.41-2.53,1.04-5.46,1.55-8.78,1.55ZM98.93,54.71V15.97h10.55v38.73h-10.55ZM104.21,10.98c-1.59,0-2.93-.54-4.01-1.63-1.08-1.08-1.63-2.37-1.63-3.87s.54-2.81,1.63-3.87c1.08-1.08,2.42-1.63,4.01-1.63s2.93.54,4.01,1.63c1.08,1.06,1.63,2.35,1.63,3.87s-.54,2.78-1.63,3.87c-1.08,1.08-2.42,1.63-4.01,1.63ZM130.91,55.5c-3.25,0-6.06-.81-8.42-2.42-2.36-1.61-4.18-3.93-5.46-6.94-1.25-3.01-1.88-6.61-1.88-10.8v-.04c0-4.22.64-7.82,1.91-10.8,1.28-3.01,3.08-5.31,5.42-6.9,2.36-1.61,5.17-2.42,8.42-2.42,1.83,0,3.52.3,5.06.9,1.54.6,2.89,1.47,4.05,2.6,1.18,1.11,2.12,2.45,2.82,4.01h.22V2.57h10.55v52.14h-10.55v-6.61h-.22c-.68,1.54-1.59,2.87-2.75,3.97-1.16,1.08-2.5,1.93-4.05,2.53-1.54.6-3.25.9-5.13.9ZM134.45,46.76c1.71,0,3.22-.46,4.52-1.37,1.3-.94,2.31-2.26,3.04-3.97.72-1.71,1.08-3.73,1.08-6.07v-.04c0-2.34-.37-4.35-1.12-6.03-.72-1.71-1.73-3.02-3.03-3.94-1.28-.94-2.77-1.41-4.48-1.41s-3.28.46-4.55,1.37-2.26,2.23-2.96,3.94c-.7,1.69-1.05,3.71-1.05,6.07v.04c0,2.34.34,4.36,1.01,6.07.7,1.71,1.69,3.04,2.96,3.97,1.3.92,2.83,1.37,4.59,1.37ZM178.28,55.5c-3.95,0-7.35-.81-10.19-2.42-2.84-1.64-5.03-3.96-6.58-6.97-1.52-3.01-2.28-6.58-2.28-10.7v-.04c0-4.12.76-7.68,2.28-10.7,1.54-3.04,3.7-5.37,6.47-7.01,2.79-1.66,6.08-2.49,9.86-2.49s7.05.81,9.79,2.42c2.77,1.59,4.9,3.84,6.4,6.76,1.52,2.91,2.28,6.32,2.28,10.23v3.25h-31.9v-6.65h26.92l-5.02,6.21v-4.05c0-2.26-.35-4.16-1.05-5.67-.7-1.54-1.67-2.7-2.93-3.47-1.23-.77-2.66-1.16-4.3-1.16s-3.1.4-4.37,1.19c-1.25.79-2.24,1.96-2.96,3.5-.7,1.52-1.05,3.38-1.05,5.6v4.08c0,2.14.35,3.97,1.05,5.49.72,1.52,1.75,2.69,3.07,3.5,1.32.79,2.9,1.19,4.73,1.19,1.45,0,2.7-.23,3.76-.69,1.06-.46,1.93-1.04,2.6-1.73.67-.7,1.13-1.41,1.37-2.13l.07-.22h9.68l-.11.4c-.29,1.42-.86,2.85-1.7,4.3s-1.99,2.77-3.43,3.97c-1.42,1.2-3.17,2.17-5.24,2.89-2.05.72-4.46,1.08-7.23,1.08Z"/>
  <path class="cls-2" d="M45.54,73.71v-8.46h5.54v1.46h-3.77v2.27h3.44v1.4h-3.44v3.33h-1.77ZM55.4,73.84c-.66,0-1.23-.13-1.71-.4-.48-.27-.84-.65-1.1-1.15-.25-.5-.38-1.11-.38-1.8h0c0-.71.13-1.3.39-1.8.26-.5.62-.88,1.1-1.15.48-.27,1.04-.41,1.7-.41s1.22.13,1.69.4c.48.27.84.66,1.1,1.16.26.5.39,1.1.39,1.79h0c0,.71-.13,1.31-.38,1.82-.25.5-.62.88-1.1,1.15-.47.27-1.04.4-1.7.4ZM55.4,72.5c.3,0,.56-.08.77-.24.21-.16.37-.39.49-.69.11-.3.17-.66.17-1.08h0c0-.43-.06-.79-.17-1.09-.11-.3-.28-.53-.49-.69-.21-.16-.47-.25-.77-.25s-.56.08-.77.25c-.21.16-.37.39-.49.69-.11.3-.17.66-.17,1.08h0c0,.44.05.8.16,1.1.11.3.28.53.49.69.21.16.47.23.78.23ZM59.98,73.71v-6.45h1.71v1h.11c.11-.35.3-.62.58-.81.28-.2.63-.29,1.05-.29.12,0,.23,0,.34.02.11.02.21.04.3.06v1.49c-.13-.03-.26-.05-.39-.07-.13-.02-.26-.03-.39-.03-.32,0-.61.06-.84.18-.24.12-.42.29-.55.5-.13.22-.19.48-.19.79v3.61h-1.71ZM69.35,73.71v-1.32h2.46c.51,0,.9-.11,1.17-.32.27-.21.4-.52.4-.92h0c0-.27-.06-.49-.19-.67-.12-.18-.3-.31-.54-.4-.24-.09-.53-.14-.88-.14h-2.42v-1.17h2.21c.48,0,.84-.1,1.1-.29s.38-.46.38-.81h0c0-.36-.12-.62-.35-.81-.23-.2-.56-.29-.98-.29h-2.36v-1.31h2.81c.55,0,1.02.09,1.41.26.39.17.69.41.9.73.21.31.32.69.32,1.12h0c0,.31-.07.59-.21.84-.13.26-.31.47-.54.64-.23.17-.49.28-.78.32v.11c.38.03.71.13,1,.32.29.18.52.42.69.71.17.29.25.62.25.98h0c0,.5-.12.93-.36,1.29-.23.36-.57.64-1.01.84-.43.2-.95.29-1.56.29h-2.91ZM68.47,73.71v-8.46h1.77v8.46h-1.77ZM76.62,73.71v-6.45h1.71v1h.11c.11-.35.3-.62.58-.81.28-.2.63-.29,1.05-.29.12,0,.23,0,.34.02.11.02.21.04.3.06v1.49c-.13-.03-.26-.05-.39-.07-.13-.02-.26-.03-.39-.03-.32,0-.61.06-.84.18-.24.12-.42.29-.55.5-.13.22-.19.48-.19.79v3.61h-1.71ZM83.49,73.8c-.41,0-.77-.08-1.09-.23-.32-.16-.56-.38-.74-.67-.18-.29-.27-.63-.27-1.03h0c0-.4.1-.73.29-1.01.2-.28.48-.49.85-.65.38-.16.83-.26,1.37-.29l2.4-.15v1.04l-2.14.14c-.37.02-.64.1-.82.23-.18.14-.27.32-.27.56h0c0,.26.09.45.28.59.19.14.43.21.73.21.27,0,.5-.05.71-.16.21-.11.37-.25.49-.43.12-.18.18-.39.18-.62v-2.06c0-.28-.09-.5-.28-.64-.18-.15-.45-.23-.8-.23-.31,0-.56.05-.76.16-.19.1-.32.25-.39.44v.02h-1.59v-.05c.05-.38.2-.71.43-.99.24-.28.57-.5.97-.66.41-.16.88-.23,1.42-.23.57,0,1.05.09,1.45.26.4.17.7.42.91.75.21.32.32.71.32,1.17v4.41h-1.69v-.86h-.11c-.11.2-.26.37-.44.52-.18.14-.39.25-.63.33-.24.07-.5.11-.78.11ZM88.81,73.71v-6.45h1.71v1h.11c.15-.35.38-.63.69-.83.31-.2.7-.3,1.16-.3.72,0,1.27.21,1.64.63.38.42.57,1.01.57,1.79v4.17h-1.71v-3.79c0-.46-.1-.8-.29-1.04-.19-.23-.49-.35-.9-.35-.26,0-.49.06-.68.18-.19.12-.33.28-.44.5-.1.21-.15.47-.15.76v3.73h-1.71ZM98.65,73.8c-.54,0-1-.13-1.39-.4-.39-.27-.69-.65-.91-1.15-.21-.5-.32-1.09-.32-1.78h0c0-.7.1-1.3.31-1.79.21-.5.51-.88.9-1.14.39-.27.86-.4,1.41-.4.29,0,.56.05.81.14.25.09.48.22.67.39.19.17.34.37.45.61h.1v-3.5h1.71v8.92h-1.71v-1h-.1c-.11.23-.26.43-.45.59-.18.16-.4.29-.65.38-.25.09-.53.13-.83.13ZM99.23,72.39c.3,0,.57-.08.78-.23.22-.15.39-.37.5-.66.12-.29.18-.62.18-1.01h0c0-.41-.06-.75-.18-1.03-.12-.29-.29-.5-.51-.66-.22-.16-.48-.23-.78-.23s-.56.08-.78.23c-.22.15-.39.37-.5.66-.12.28-.18.62-.18,1.01h0c0,.41.06.75.18,1.03.12.29.29.5.5.66.22.15.48.23.78.23ZM104.33,73.71v-8.46h2.03l2.34,6.19h.11l2.33-6.19h2.03v8.46h-1.58v-5.75h-.87l1.69-2.47-3.1,8.22h-1.11l-3.09-8.22,1.68,2.47h-.87v5.75h-1.58ZM115.06,73.71v-6.45h1.71v6.45h-1.71ZM115.92,66.26c-.26,0-.49-.09-.68-.28-.19-.19-.29-.41-.29-.67s.1-.49.29-.67c.19-.19.42-.28.68-.28s.49.09.68.28c.19.18.28.41.28.67s-.09.49-.28.67c-.19.18-.41.28-.68.28ZM121.06,73.84c-.59,0-1.09-.08-1.5-.24-.41-.16-.73-.39-.97-.67-.23-.29-.36-.61-.4-.98v-.02s1.68,0,1.68,0v.02c.08.2.22.36.41.49.2.13.47.19.8.19.22,0,.41-.03.57-.09.16-.06.29-.15.39-.25.09-.11.14-.23.14-.37h0c0-.18-.07-.33-.21-.44-.14-.11-.38-.21-.7-.28l-1.08-.23c-.41-.09-.75-.21-1.03-.38-.27-.17-.48-.37-.62-.62-.13-.24-.2-.52-.2-.84h0c0-.41.11-.77.33-1.07.23-.3.54-.54.94-.71.41-.17.88-.25,1.41-.25.56,0,1.04.09,1.43.26.4.17.7.39.91.68.21.28.33.6.36.94v.02h-1.59v-.03c-.05-.18-.17-.33-.36-.46-.19-.14-.44-.21-.76-.21-.19,0-.37.03-.52.09-.15.06-.27.14-.36.25-.09.11-.13.23-.13.38h0c0,.12.03.22.09.3s.15.16.29.22c.13.06.31.12.53.17l1.07.23c.64.14,1.12.35,1.43.63.31.28.46.66.46,1.14h0c0,.43-.12.8-.36,1.12-.24.32-.58.56-1,.74-.43.17-.91.26-1.46.26ZM127.74,73.84c-.59,0-1.09-.08-1.5-.24-.41-.16-.73-.39-.97-.67-.23-.29-.36-.61-.4-.98v-.02s1.68,0,1.68,0v.02c.08.2.21.36.41.49.2.13.47.19.8.19.22,0,.41-.03.58-.09.16-.06.29-.15.39-.25.09-.11.14-.23.14-.37h0c0-.18-.07-.33-.21-.44-.14-.11-.38-.21-.7-.28l-1.08-.23c-.41-.09-.75-.21-1.03-.38-.27-.17-.48-.37-.62-.62-.13-.24-.2-.52-.2-.84h0c0-.41.11-.77.33-1.07.23-.3.54-.54.94-.71.41-.17.88-.25,1.41-.25.56,0,1.04.09,1.44.26.39.17.7.39.91.68.21.28.33.6.36.94v.02h-1.59v-.03c-.05-.18-.17-.33-.36-.46-.19-.14-.44-.21-.76-.21-.2,0-.37.03-.52.09s-.27.14-.36.25c-.09.11-.13.23-.13.38h0c0,.12.03.22.09.3.06.09.15.16.29.22.13.06.31.12.53.17l1.07.23c.65.14,1.12.35,1.43.63.31.28.46.66.46,1.14h0c0,.43-.12.8-.36,1.12-.24.32-.58.56-1,.74-.43.17-.91.26-1.46.26ZM131.98,73.71v-6.45h1.71v6.45h-1.71ZM132.84,66.26c-.26,0-.49-.09-.68-.28-.19-.19-.29-.41-.29-.67s.1-.49.29-.67c.19-.19.42-.28.68-.28s.49.09.68.28c.19.18.28.41.28.67s-.09.49-.28.67c-.19.18-.41.28-.68.28ZM138.28,73.84c-.66,0-1.23-.13-1.71-.4-.48-.27-.84-.65-1.1-1.15-.25-.5-.38-1.11-.38-1.8h0c0-.71.13-1.3.39-1.8s.62-.88,1.1-1.15c.48-.27,1.04-.41,1.7-.41s1.22.13,1.69.4c.48.27.84.66,1.1,1.16.26.5.39,1.1.39,1.79h0c0,.71-.13,1.31-.38,1.82-.25.5-.62.88-1.1,1.15-.47.27-1.04.4-1.71.4ZM138.28,72.5c.31,0,.56-.08.77-.24.21-.16.37-.39.49-.69.11-.3.17-.66.17-1.08h0c0-.43-.06-.79-.17-1.09-.11-.3-.28-.53-.49-.69-.21-.16-.47-.25-.77-.25s-.56.08-.77.25c-.21.16-.37.39-.49.69-.11.3-.17.66-.17,1.08h0c0,.44.05.8.16,1.1.11.3.28.53.49.69.21.16.47.23.78.23ZM142.85,73.71v-6.45h1.71v1h.1c.15-.35.38-.63.69-.83.31-.2.7-.3,1.16-.3.72,0,1.27.21,1.64.63.38.42.57,1.01.57,1.79v4.17h-1.71v-3.79c0-.46-.1-.8-.29-1.04-.19-.23-.49-.35-.9-.35-.26,0-.49.06-.68.18-.19.12-.33.28-.44.5-.1.21-.15.47-.15.76v3.73h-1.71Z"/>
</svg>