<?xml version="1.0" encoding="UTF-8"?>
<svg id="Laag_1" data-name="Laag 1" xmlns="http://www.w3.org/2000/svg" xmlns:xlink="http://www.w3.org/1999/xlink" viewBox="0 0 15 10">
  <defs>
    <style>
      .cls-1 {
        clip-path: url(#clippath);
      }

      .cls-2 {
        fill: none;
      }

      .cls-2, .cls-3 {
        stroke-width: 0px;
      }

      .cls-3 {
        fill: #ea561d;
      }
    </style>
    <clipPath id="clippath">
      <rect class="cls-2" width="15" height="10"/>
    </clipPath>
  </defs>
  <g class="cls-1">
    <g>
      <path class="cls-3" d="M8.32.05c.08.04.2.11.35.21,1.97,1.4,3.95,2.81,5.92,4.22.22.17.48.41.36.68-.07.17-.29.34-.46.46-1.97,1.39-3.95,2.81-5.93,4.2-.19.12-.37.26-.41.07-.02-1.22,0-5.4,0-8.02V.24c0-.12,0-.28.18-.19h0Z"/>
      <path class="cls-3" d="M9.55,2.96H1.52C.69,2.96.02,3.6.02,4.39v1.19c0,.79.67,1.43,1.49,1.43h8.03c.82,0,1.49-.64,1.49-1.43v-1.19c0-.79-.67-1.43-1.49-1.43Z"/>
    </g>
  </g>
</svg>